<?xml version="1.0" encoding="utf-8"?>
<!-- Generator: Adobe Illustrator 26.0.1, SVG Export Plug-In . SVG Version: 6.00 Build 0)  -->
<svg version="1.1" id="Layer_1" xmlns="http://www.w3.org/2000/svg" xmlns:xlink="http://www.w3.org/1999/xlink" x="0px" y="0px"
	 viewBox="0 0 32 32" style="enable-background:new 0 0 32 32;" xml:space="preserve">
<style type="text/css">
	.st0{fill:none;}
</style>
<g>
	<circle class="st0" cx="7.4" cy="23" r="2.6"/>
	<path class="st0" d="M27.2,13.6c0,0.3,0,0.7,0,1c-0.1,2-0.5,3.9-1.2,5.8c-0.4,1-0.8,2-1.3,2.9l-0.2,0.4c-0.4,0.8-0.9,1.5-1.5,2.1
		l-0.3,0.3L22.5,26l-0.4-0.2l-4.3-2.1l-0.9-0.4c0.3-0.9,0.6-1.9,0.8-2.9c0.1-0.8,0.2-1.5,0.2-2.3v-0.7c0-0.5-0.3-1-0.8-1.3
		c-0.6-0.3-1.1-0.5-1.5-0.7c-0.8-0.3-1.6-0.5-2.4-0.7c-0.5-0.1-1-0.2-1.5-0.2H9.8v-0.1L9.5,12L8.9,8c0.3-0.2,0.6-0.4,1-0.5
		c0.9-0.5,1.9-0.8,2.9-1.1l0.3-0.1c1.3-0.3,2.5-0.5,3.8-0.5h0.9c1.6,0.1,3.2,0.4,4.7,1c1.5,0.5,2.9,1.3,4.2,2.3
		c0.2,1,0.4,1.9,0.4,2.9C27.2,12.6,27.2,13,27.2,13.6L27.2,13.6z"/>
</g>
</svg>
